0
SECTION
2
HEADER
0
ENDSEC
0
SECTION
2
ENTITIES
0
3DFACE
8
0
62
1
10
2.523900
20
63.360901
30
-1.531000
11
3.403900
21
63.576000
31
-0.168900
12
2.623900
22
62.625198
32
-1.403100
13
2.623900
23
62.625198
33
-1.403100
0
3DFACE
8
0
62
1
10
2.623900
20
62.625198
30
-1.403100
11
3.403900
21
63.576000
31
-0.168900
12
3.513900
22
62.601799
32
-0.125900
13
3.513900
23
62.601799
33
-0.125900
0
3DFACE
8
0
62
1
10
3.403900
20
63.576000
30
-0.168900
11
3.913900
21
62.522800
31
2.931000
12
3.513900
22
62.601799
32
-0.125900
13
3.513900
23
62.601799
33
-0.125900
0
3DFACE
8
0
62
1
10
3.513900
20
62.601799
30
-0.125900
11
3.913900
21
62.522800
31
2.931000
12
3.043900
22
61.692402
32
0.061300
13
3.043900
23
61.692402
33
0.061300
0
3DFACE
8
0
62
1
10
3.913900
20
62.522800
30
2.931000
11
3.673900
21
62.093201
31
2.505500
12
3.043900
22
61.692402
32
0.061300
13
3.043900
23
61.692402
33
0.061300
0
3DFACE
8
0
62
1
10
3.043900
20
61.692402
30
0.061300
11
3.673900
21
62.093201
31
2.505500
12
-0.046100
22
63.490002
32
-2.117300
13
-0.046100
23
63.490002
33
-2.117300
0
3DFACE
8
0
62
1
10
3.673900
20
62.093201
30
2.505500
11
-0.076100
21
63.672100
31
-1.015600
12
-0.046100
22
63.490002
32
-2.117300
13
-0.046100
23
63.490002
33
-2.117300
0
3DFACE
8
0
62
1
10
-0.046100
20
63.490002
30
-2.117300
11
-0.076100
21
63.672100
31
-1.015600
12
-3.846100
22
62.071701
32
2.511600
13
-3.846100
23
62.071701
33
2.511600
0
3DFACE
8
0
62
1
10
-0.076100
20
63.672100
30
-1.015600
11
-0.026100
21
63.888699
31
-0.812700
12
-3.846100
22
62.071701
32
2.511600
13
-3.846100
23
62.071701
33
2.511600
0
3DFACE
8
0
62
1
10
-3.846100
20
62.071701
30
2.511600
11
-0.026100
21
63.888699
31
-0.812700
12
-4.076100
22
62.501301
32
2.937200
13
-4.076100
23
62.501301
33
2.937200
0
3DFACE
8
0
62
1
10
-0.026100
20
63.888699
30
-0.812700
11
-0.066100
21
64.103500
31
-0.599900
12
-4.076100
22
62.501301
32
2.937200
13
-4.076100
23
62.501301
33
2.937200
0
3DFACE
8
0
62
1
10
-4.076100
20
62.501301
30
2.937200
11
-0.066100
21
64.103500
31
-0.599900
12
-0.086100
22
64.376503
32
-0.427200
13
-0.086100
23
64.376503
33
-0.427200
0
3DFACE
8
0
62
1
10
-0.066100
20
64.103500
30
-0.599900
11
3.913900
21
62.522800
31
2.931000
12
-0.086100
22
64.376503
32
-0.427200
13
-0.086100
23
64.376503
33
-0.427200
0
3DFACE
8
0
62
1
10
-0.086100
20
64.376503
30
-0.427200
11
3.913900
21
62.522800
31
2.931000
12
3.883900
22
63.060902
32
3.264800
13
3.883900
23
63.060902
33
3.264800
0
3DFACE
8
0
62
1
10
3.913900
20
62.522800
30
2.931000
11
3.703900
21
63.881901
31
1.800000
12
3.883900
22
63.060902
32
3.264800
13
3.883900
23
63.060902
33
3.264800
0
3DFACE
8
0
62
1
10
3.883900
20
63.060902
30
3.264800
11
3.703900
21
63.881901
31
1.800000
12
3.533900
22
63.865200
32
3.698800
13
3.533900
23
63.865200
33
3.698800
0
3DFACE
8
0
62
1
10
3.703900
20
63.881901
30
1.800000
11
3.403900
21
64.155403
31
3.834000
12
3.533900
22
63.865200
32
3.698800
13
3.533900
23
63.865200
33
3.698800
0
3DFACE
8
0
62
1
10
3.533900
20
63.865200
30
3.698800
11
3.403900
21
64.155403
31
3.834000
12
-0.066100
22
64.923798
32
-0.142600
13
-0.066100
23
64.923798
33
-0.142600
0
3DFACE
8
0
62
1
10
3.403900
20
64.155403
30
3.834000
11
-0.046100
21
65.226402
31
0.035600
12
-0.066100
22
64.923798
32
-0.142600
13
-0.066100
23
64.923798
33
-0.142600
0
3DFACE
8
0
62
1
10
-0.066100
20
64.923798
30
-0.142600
11
-0.046100
21
65.226402
31
0.035600
12
-4.056100
22
63.049301
32
3.272800
13
-4.056100
23
63.049301
33
3.272800
0
3DFACE
8
0
62
1
10
-0.046100
20
65.226402
30
0.035600
11
-3.696100
21
63.853600
31
3.706800
12
-4.056100
22
63.049301
32
3.272800
13
-4.056100
23
63.049301
33
3.272800
0
3DFACE
8
0
62
1
10
-4.056100
20
63.049301
30
3.272800
11
-3.696100
21
63.853600
31
3.706800
12
-3.846100
22
63.864101
32
1.786500
13
-3.846100
23
63.864101
33
1.786500
0
3DFACE
8
0
62
1
10
-3.696100
20
63.853600
30
3.706800
11
-3.556100
21
64.145599
31
3.832200
12
-3.846100
22
63.864101
32
1.786500
13
-3.846100
23
63.864101
33
1.786500
0
3DFACE
8
0
62
1
10
-3.846100
20
63.864101
30
1.786500
11
-3.556100
21
64.145599
31
3.832200
12
-3.406100
22
65.166100
32
2.607800
13
-3.406100
23
65.166100
33
2.607800
0
3DFACE
8
0
62
1
10
-3.556100
20
64.145599
30
3.832200
11
-3.286100
21
64.862297
31
3.751600
12
-3.406100
22
65.166100
32
2.607800
13
-3.406100
23
65.166100
33
2.607800
0
3DFACE
8
0
62
1
10
-3.406100
20
65.166100
30
2.607800
11
-3.286100
21
64.862297
31
3.751600
12
-3.086100
22
66.458702
32
3.315500
13
-3.086100
23
66.458702
33
3.315500
0
3DFACE
8
0
62
1
10
-3.286100
20
64.862297
30
3.751600
11
-2.916100
21
64.971703
31
4.422800
12
-3.086100
22
66.458702
32
3.315500
13
-3.086100
23
66.458702
33
3.315500
0
3DFACE
8
0
62
1
10
-3.086100
20
66.458702
30
3.315500
11
-2.916100
21
64.971703
31
4.422800
12
-2.366100
22
66.680099
32
4.424500
13
-2.366100
23
66.680099
33
4.424500
0
3DFACE
8
0
62
1
10
-2.916100
20
64.971703
30
4.422800
11
-2.516100
21
65.083000
31
4.809600
12
-2.366100
22
66.680099
32
4.424500
13
-2.366100
23
66.680099
33
4.424500
0
3DFACE
8
0
62
1
10
-0.046100
20
68.646400
30
0.843100
11
1.293900
21
68.483704
31
0.843400
12
1.183900
22
68.390297
32
0.195500
13
1.183900
23
68.390297
33
0.195500
0
3DFACE
8
0
62
1
10
-0.046100
20
68.646400
30
0.843100
11
1.183900
21
68.622704
31
1.957500
12
1.293900
22
68.483704
32
0.843400
13
1.293900
23
68.483704
33
0.843400
0
3DFACE
8
0
62
1
10
-0.046100
20
68.646400
30
0.843100
11
0.883900
21
68.559402
31
2.901800
12
1.183900
22
68.622704
32
1.957500
13
1.183900
23
68.622704
33
1.957500
0
3DFACE
8
0
62
1
10
-0.046100
20
68.646400
30
0.843100
11
0.433900
21
68.486000
31
3.406900
12
0.883900
22
68.559402
32
2.901800
13
0.883900
23
68.559402
33
2.901800
0
3DFACE
8
0
62
1
10
-0.046100
20
68.646400
30
0.843100
11
-0.046100
21
68.462303
31
3.534700
12
0.433900
22
68.486000
32
3.406900
13
0.433900
23
68.486000
33
3.406900
0
3DFACE
8
0
62
1
10
-0.046100
20
68.646400
30
0.843100
11
-0.566100
21
68.486000
31
3.406900
12
-0.046100
22
68.462303
32
3.534700
13
-0.046100
23
68.462303
33
3.534700
0
3DFACE
8
0
62
1
10
-0.046100
20
68.646400
30
0.843100
11
-1.016100
21
68.551399
31
2.890100
12
-0.566100
22
68.486000
32
3.406900
13
-0.566100
23
68.486000
33
3.406900
0
3DFACE
8
0
62
1
10
-0.046100
20
68.646400
30
0.843100
11
-1.326100
21
68.624603
31
1.947600
12
-1.016100
22
68.551399
32
2.890100
13
-1.016100
23
68.551399
33
2.890100
0
3DFACE
8
0
62
1
10
-0.046100
20
68.646400
30
0.843100
11
-1.436100
21
68.483704
31
0.843400
12
-1.326100
22
68.624603
32
1.947600
13
-1.326100
23
68.624603
33
1.947600
0
3DFACE
8
0
62
1
10
-0.046100
20
68.646400
30
0.843100
11
-1.326100
21
68.390297
31
0.195500
12
-1.436100
22
68.483704
32
0.843400
13
-1.436100
23
68.483704
33
0.843400
0
3DFACE
8
0
62
1
10
-0.046100
20
68.646400
30
0.843100
11
-1.016100
21
68.308197
31
-0.348600
12
-1.326100
22
68.390297
32
0.195500
13
-1.326100
23
68.390297
33
0.195500
0
3DFACE
8
0
62
1
10
-0.046100
20
68.646400
30
0.843100
11
-0.566100
21
68.236198
31
-0.728100
12
-1.016100
22
68.308197
32
-0.348600
13
-1.016100
23
68.308197
33
-0.348600
0
3DFACE
8
0
62
1
10
-0.046100
20
68.646400
30
0.843100
11
-0.046100
21
68.218803
31
-0.853400
12
-0.566100
22
68.236198
32
-0.728100
13
-0.566100
23
68.236198
33
-0.728100
0
3DFACE
8
0
62
1
10
-0.046100
20
68.646400
30
0.843100
11
0.433900
21
68.236198
31
-0.728100
12
-0.046100
22
68.218803
32
-0.853400
13
-0.046100
23
68.218803
33
-0.853400
0
3DFACE
8
0
62
1
10
-0.046100
20
68.646400
30
0.843100
11
0.883900
21
68.308197
31
-0.348600
12
0.433900
22
68.236198
32
-0.728100
13
0.433900
23
68.236198
33
-0.728100
0
3DFACE
8
0
62
1
10
-0.046100
20
68.646400
30
0.843100
11
1.183900
21
68.390297
31
0.195500
12
0.883900
22
68.308197
32
-0.348600
13
0.883900
23
68.308197
33
-0.348600
0
3DFACE
8
0
62
1
10
-2.756100
20
62.646702
30
-1.409300
11
-1.336100
21
62.133400
31
-1.931700
12
-2.426100
22
61.768501
32
-0.951800
13
-2.426100
23
61.768501
33
-0.951800
0
3DFACE
8
0
62
1
10
-2.426100
20
61.768501
30
-0.951800
11
-1.336100
21
62.133400
31
-1.931700
12
2.293900
22
61.768501
32
-0.951800
13
2.293900
23
61.768501
33
-0.951800
0
3DFACE
8
0
62
1
10
-1.336100
20
62.133400
30
-1.931700
11
1.203900
21
62.111900
31
-1.925500
12
2.293900
22
61.768501
32
-0.951800
13
2.293900
23
61.768501
33
-0.951800
0
3DFACE
8
0
62
1
10
2.293900
20
61.768501
30
-0.951800
11
1.203900
21
62.111900
31
-1.925500
12
2.623900
22
62.625198
32
-1.403100
13
2.623900
23
62.625198
33
-1.403100
0
3DFACE
8
0
62
1
10
1.203900
20
62.111900
30
-1.925500
11
1.373900
21
62.646301
31
-2.558600
12
2.623900
22
62.625198
32
-1.403100
13
2.623900
23
62.625198
33
-1.403100
0
3DFACE
8
0
62
1
10
2.623900
20
62.625198
30
-1.403100
11
1.373900
21
62.646301
31
-2.558600
12
1.323900
22
63.205799
32
-2.668400
13
1.323900
23
63.205799
33
-2.668400
0
3DFACE
8
0
62
1
10
1.373900
20
62.646301
30
-2.558600
11
-0.046100
21
62.757500
31
-2.883800
12
1.323900
22
63.205799
32
-2.668400
13
1.323900
23
63.205799
33
-2.668400
0
3DFACE
8
0
62
1
10
1.323900
20
63.205799
30
-2.668400
11
-0.046100
21
62.757500
31
-2.883800
12
-0.046100
22
63.155998
32
-3.003100
13
-0.046100
23
63.155998
33
-3.003100
0
3DFACE
8
0
62
1
10
-0.046100
20
62.757500
30
-2.883800
11
-1.466100
21
63.205799
31
-2.668400
12
-0.046100
22
63.155998
32
-3.003100
13
-0.046100
23
63.155998
33
-3.003100
0
3DFACE
8
0
62
1
10
-0.046100
20
63.155998
30
-3.003100
11
-1.466100
21
63.205799
31
-2.668400
12
-0.046100
22
65.512901
32
-2.769200
13
-0.046100
23
65.512901
33
-2.769200
0
3DFACE
8
0
62
1
10
-1.466100
20
63.205799
30
-2.668400
11
-1.306100
21
65.558296
31
-2.465800
12
-0.046100
22
65.512901
32
-2.769200
13
-0.046100
23
65.512901
33
-2.769200
0
3DFACE
8
0
62
1
10
-0.046100
20
65.512901
30
-2.769200
11
-1.306100
21
65.558296
31
-2.465800
12
-1.096100
22
67.174301
32
-1.911700
13
-1.096100
23
67.174301
33
-1.911700
0
3DFACE
8
0
62
1
10
-1.306100
20
65.558296
30
-2.465800
11
-2.366100
21
65.727303
31
-1.458100
12
-1.096100
22
67.174301
32
-1.911700
13
-1.096100
23
67.174301
33
-1.911700
0
3DFACE
8
0
62
1
10
-1.096100
20
67.174301
30
-1.911700
11
-2.366100
21
65.727303
31
-1.458100
12
-1.986100
22
67.289902
32
-1.219000
13
-1.986100
23
67.289902
33
-1.219000
0
3DFACE
8
0
62
1
10
1.833900
20
67.873299
30
3.913600
11
0.953900
21
67.858200
31
4.378600
12
2.223900
22
66.658600
32
4.430700
13
2.223900
23
66.658600
33
4.430700
0
3DFACE
8
0
62
1
10
2.223900
20
66.658600
30
4.430700
11
0.953900
21
67.858200
31
4.378600
12
1.163900
22
66.763603
32
5.070600
13
1.163900
23
66.763603
33
5.070600
0
3DFACE
8
0
62
1
10
0.953900
20
67.858200
30
4.378600
11
-0.046100
21
66.828697
31
5.377600
12
1.163900
22
66.763603
32
5.070600
13
1.163900
23
66.763603
33
5.070600
0
3DFACE
8
0
62
1
10
1.163900
20
66.763603
30
5.070600
11
-0.046100
21
66.828697
31
5.377600
12
0.603900
22
65.258202
32
5.838800
13
0.603900
23
65.258202
33
5.838800
0
3DFACE
8
0
62
1
10
-0.046100
20
66.828697
30
5.377600
11
-0.046100
21
65.266502
31
6.013300
12
0.603900
22
65.258202
32
5.838800
13
0.603900
23
65.258202
33
5.838800
0
3DFACE
8
0
62
1
10
0.603900
20
65.258202
30
5.838800
11
-0.046100
21
65.266502
31
6.013300
12
-0.046100
22
64.675903
32
6.839400
13
-0.046100
23
64.675903
33
6.839400
0
3DFACE
8
0
62
1
10
-0.046100
20
65.266502
30
6.013300
11
-0.736100
21
65.258202
31
5.838800
12
-0.046100
22
64.675903
32
6.839400
13
-0.046100
23
64.675903
33
6.839400
0
3DFACE
8
0
62
1
10
-0.046100
20
64.675903
30
6.839400
11
-0.736100
21
65.258202
31
5.838800
12
-1.466100
22
64.619904
32
6.483200
13
-1.466100
23
64.619904
33
6.483200
0
3DFACE
8
0
62
1
10
-0.736100
20
65.258202
30
5.838800
11
-1.386100
21
65.222900
31
5.700000
12
-1.466100
22
64.619904
32
6.483200
13
-1.466100
23
64.619904
33
6.483200
0
3DFACE
8
0
62
1
10
-1.466100
20
64.619904
30
6.483200
11
-1.386100
21
65.222900
31
5.700000
12
-1.936100
22
65.154602
32
5.300900
13
-1.936100
23
65.154602
33
5.300900
0
3DFACE
8
0
62
1
10
-1.386100
20
65.222900
30
5.700000
11
-1.306100
21
66.763603
31
5.070600
12
-1.936100
22
65.154602
32
5.300900
13
-1.936100
23
65.154602
33
5.300900
0
3DFACE
8
0
62
1
10
-1.936100
20
65.154602
30
5.300900
11
-1.306100
21
66.763603
31
5.070600
12
-2.366100
22
66.680099
32
4.424500
13
-2.366100
23
66.680099
33
4.424500
0
3DFACE
8
0
62
1
10
-1.306100
20
66.763603
30
5.070600
11
-1.096100
21
67.858200
31
4.378600
12
-2.366100
22
66.680099
32
4.424500
13
-2.366100
23
66.680099
33
4.424500
0
3DFACE
8
0
62
1
10
-2.366100
20
66.680099
30
4.424500
11
-1.096100
21
67.858200
31
4.378600
12
-1.986100
22
67.863503
32
3.911800
13
-1.986100
23
67.863503
33
3.911800
0
3DFACE
8
0
62
1
10
1.833900
20
67.873299
30
3.913600
11
2.223900
21
66.658600
31
4.430700
12
2.423900
22
67.776497
32
2.736200
13
2.423900
23
67.776497
33
2.736200
0
3DFACE
8
0
62
1
10
2.423900
20
67.776497
30
2.736200
11
2.223900
21
66.658600
31
4.430700
12
2.943900
22
66.458702
32
3.315500
13
2.943900
23
66.458702
33
3.315500
0
3DFACE
8
0
62
1
10
2.223900
20
66.658600
30
4.430700
11
2.773900
21
64.971703
31
4.422800
12
2.943900
22
66.458702
32
3.315500
13
2.943900
23
66.458702
33
3.315500
0
3DFACE
8
0
62
1
10
2.943900
20
66.458702
30
3.315500
11
2.773900
21
64.971703
31
4.422800
12
3.143900
22
64.862297
32
3.751600
13
3.143900
23
64.862297
33
3.751600
0
3DFACE
8
0
62
1
10
2.773900
20
64.971703
30
4.422800
11
3.403900
21
64.155403
31
3.834000
12
3.143900
22
64.862297
32
3.751600
13
3.143900
23
64.862297
33
3.751600
0
3DFACE
8
0
62
1
10
3.143900
20
64.862297
30
3.751600
11
3.403900
21
64.155403
31
3.834000
12
3.263900
22
65.166100
32
2.607800
13
3.263900
23
65.166100
33
2.607800
0
3DFACE
8
0
62
1
10
3.403900
20
64.155403
30
3.834000
11
3.703900
21
63.881901
31
1.800000
12
3.263900
22
65.166100
32
2.607800
13
3.263900
23
65.166100
33
2.607800
0
3DFACE
8
0
62
1
10
3.263900
20
65.166100
30
2.607800
11
3.703900
21
63.881901
31
1.800000
12
3.183900
22
66.206596
32
1.549800
13
3.183900
23
66.206596
33
1.549800
0
3DFACE
8
0
62
1
10
3.703900
20
63.881901
30
1.800000
11
3.403900
21
63.576000
31
-0.168900
12
3.183900
22
66.206596
32
1.549800
13
3.183900
23
66.206596
33
1.549800
0
3DFACE
8
0
62
1
10
3.183900
20
66.206596
30
1.549800
11
3.403900
21
63.576000
31
-0.168900
12
2.943900
22
65.943497
32
-0.156800
13
2.943900
23
65.943497
33
-0.156800
0
3DFACE
8
0
62
1
10
3.403900
20
63.576000
30
-0.168900
11
2.223900
21
65.727303
31
-1.458100
12
2.943900
22
65.943497
32
-0.156800
13
2.943900
23
65.943497
33
-0.156800
0
3DFACE
8
0
62
1
10
2.943900
20
65.943497
30
-0.156800
11
2.223900
21
65.727303
31
-1.458100
12
2.423900
22
67.439903
32
-0.163900
13
2.423900
23
67.439903
33
-0.163900
0
3DFACE
8
0
62
1
10
2.223900
20
65.727303
30
-1.458100
11
1.833900
21
67.289902
31
-1.219000
12
2.423900
22
67.439903
32
-0.163900
13
2.423900
23
67.439903
33
-0.163900
0
3DFACE
8
0
62
1
10
2.623900
20
62.625198
30
-1.403100
11
3.043900
21
61.692402
31
0.061300
12
2.293900
22
61.768501
32
-0.951800
13
2.293900
23
61.768501
33
-0.951800
0
3DFACE
8
0
62
1
10
2.293900
20
61.768501
30
-0.951800
11
3.043900
21
61.692402
31
0.061300
12
-2.426100
22
61.768501
32
-0.951800
13
-2.426100
23
61.768501
33
-0.951800
0
3DFACE
8
0
62
1
10
3.043900
20
61.692402
30
0.061300
11
-3.216100
21
61.692402
31
0.061300
12
-2.426100
22
61.768501
32
-0.951800
13
-2.426100
23
61.768501
33
-0.951800
0
3DFACE
8
0
62
1
10
-2.426100
20
61.768501
30
-0.951800
11
-3.216100
21
61.692402
31
0.061300
12
-2.756100
22
62.646702
32
-1.409300
13
-2.756100
23
62.646702
33
-1.409300
0
3DFACE
8
0
62
1
10
-3.216100
20
61.692402
30
0.061300
11
-3.696100
21
62.599998
31
-0.116100
12
-2.756100
22
62.646702
32
-1.409300
13
-2.756100
23
62.646702
33
-1.409300
0
3DFACE
8
0
62
1
10
-2.756100
20
62.646702
30
-1.409300
11
-3.696100
21
62.599998
31
-0.116100
12
-3.556100
22
63.576000
32
-0.168900
13
-3.556100
23
63.576000
33
-0.168900
0
3DFACE
8
0
62
1
10
-3.696100
20
62.599998
30
-0.116100
11
-4.076100
21
62.501301
31
2.937200
12
-3.556100
22
63.576000
32
-0.168900
13
-3.556100
23
63.576000
33
-0.168900
0
3DFACE
8
0
62
1
10
-3.556100
20
63.576000
30
-0.168900
11
-4.076100
21
62.501301
31
2.937200
12
-3.846100
22
63.864101
32
1.786500
13
-3.846100
23
63.864101
33
1.786500
0
3DFACE
8
0
62
1
10
-4.076100
20
62.501301
30
2.937200
11
-4.056100
21
63.049301
31
3.272800
12
-3.846100
22
63.864101
32
1.786500
13
-3.846100
23
63.864101
33
1.786500
0
3DFACE
8
0
62
1
10
-3.696100
20
63.853600
30
3.706800
11
-0.046100
21
65.612000
31
0.259700
12
-3.556100
22
64.145599
32
3.832200
13
-3.556100
23
64.145599
33
3.832200
0
3DFACE
8
0
62
1
10
-3.556100
20
64.145599
30
3.832200
11
-0.046100
21
65.612000
31
0.259700
12
-0.066100
22
65.755798
32
0.306700
13
-0.066100
23
65.755798
33
0.306700
0
3DFACE
8
0
62
1
10
-0.046100
20
65.612000
30
0.259700
11
3.403900
21
64.155403
31
3.834000
12
-0.066100
22
65.755798
32
0.306700
13
-0.066100
23
65.755798
33
0.306700
0
3DFACE
8
0
62
1
10
-0.066100
20
65.755798
30
0.306700
11
3.403900
21
64.155403
31
3.834000
12
0.013900
22
65.895302
32
1.309000
13
0.013900
23
65.895302
33
1.309000
0
3DFACE
8
0
62
1
10
3.403900
20
64.155403
30
3.834000
11
2.523900
21
64.462601
31
5.467400
12
0.013900
22
65.895302
32
1.309000
13
0.013900
23
65.895302
33
1.309000
0
3DFACE
8
0
62
1
10
0.013900
20
65.895302
30
1.309000
11
2.523900
21
64.462601
31
5.467400
12
-0.056100
22
66.053001
32
2.213000
13
-0.056100
23
66.053001
33
2.213000
0
3DFACE
8
0
62
1
10
2.523900
20
64.462601
30
5.467400
11
0.003900
21
66.125298
31
2.755200
12
-0.056100
22
66.053001
32
2.213000
13
-0.056100
23
66.053001
33
2.213000
0
3DFACE
8
0
62
1
10
-0.056100
20
66.053001
30
2.213000
11
0.003900
21
66.125298
31
2.755200
12
-2.676100
22
64.462601
32
5.467400
13
-2.676100
23
64.462601
33
5.467400
0
3DFACE
8
0
62
1
10
0.003900
20
66.125298
30
2.755200
11
-1.466100
21
64.619904
31
6.483200
12
-2.676100
22
64.462601
32
5.467400
13
-2.676100
23
64.462601
33
5.467400
0
3DFACE
8
0
62
1
10
1.373900
20
62.646301
30
-2.558600
11
1.203900
21
62.111900
31
-1.925500
12
-0.046100
22
62.757500
32
-2.883800
13
-0.046100
23
62.757500
33
-2.883800
0
3DFACE
8
0
62
1
10
-0.046100
20
62.757500
30
-2.883800
11
1.203900
21
62.111900
31
-1.925500
12
-0.046100
22
62.263599
32
-2.578800
13
-0.046100
23
62.263599
33
-2.578800
0
3DFACE
8
0
62
1
10
1.203900
20
62.111900
30
-1.925500
11
-1.336100
21
62.133400
31
-1.931700
12
-0.046100
22
62.263599
32
-2.578800
13
-0.046100
23
62.263599
33
-2.578800
0
3DFACE
8
0
62
1
10
-0.046100
20
62.263599
30
-2.578800
11
-1.336100
21
62.133400
31
-1.931700
12
-0.046100
22
62.757500
32
-2.883800
13
-0.046100
23
62.757500
33
-2.883800
0
3DFACE
8
0
62
1
10
-1.336100
20
62.133400
30
-1.931700
11
-1.506100
21
62.667801
31
-2.564800
12
-0.046100
22
62.757500
32
-2.883800
13
-0.046100
23
62.757500
33
-2.883800
0
3DFACE
8
0
62
1
10
-0.046100
20
62.757500
30
-2.883800
11
-1.506100
21
62.667801
31
-2.564800
12
-1.466100
22
63.205799
32
-2.668400
13
-1.466100
23
63.205799
33
-2.668400
0
3DFACE
8
0
62
1
10
-1.506100
20
62.667801
30
-2.564800
11
-2.756100
21
62.646702
31
-1.409300
12
-1.466100
22
63.205799
32
-2.668400
13
-1.466100
23
63.205799
33
-2.668400
0
3DFACE
8
0
62
1
10
-1.466100
20
63.205799
30
-2.668400
11
-2.756100
21
62.646702
31
-1.409300
12
-2.676100
22
63.360901
32
-1.531000
13
-2.676100
23
63.360901
33
-1.531000
0
3DFACE
8
0
62
1
10
-3.346100
20
66.206596
30
1.549800
11
-2.566100
21
67.438103
31
-0.154100
12
-3.086100
22
65.933701
32
-0.158600
13
-3.086100
23
65.933701
33
-0.158600
0
3DFACE
8
0
62
1
10
-3.346100
20
66.206596
30
1.549800
11
-2.776100
21
67.681198
31
1.386100
12
-2.566100
22
67.438103
32
-0.154100
13
-2.566100
23
67.438103
33
-0.154100
0
3DFACE
8
0
62
1
10
-3.346100
20
66.206596
30
1.549800
11
-2.566100
21
67.778297
31
2.726300
12
-2.776100
22
67.681198
32
1.386100
13
-2.776100
23
67.681198
33
1.386100
0
3DFACE
8
0
62
1
10
-3.346100
20
66.206596
30
1.549800
11
-3.086100
21
66.458702
31
3.315500
12
-2.566100
22
67.778297
32
2.726300
13
-2.566100
23
67.778297
33
2.726300
0
3DFACE
8
0
62
1
10
-3.346100
20
66.206596
30
1.549800
11
-3.406100
21
65.166100
31
2.607800
12
-3.086100
22
66.458702
32
3.315500
13
-3.086100
23
66.458702
33
3.315500
0
3DFACE
8
0
62
1
10
-3.346100
20
66.206596
30
1.549800
11
-3.846100
21
63.864101
31
1.786500
12
-3.406100
22
65.166100
32
2.607800
13
-3.406100
23
65.166100
33
2.607800
0
3DFACE
8
0
62
1
10
-3.346100
20
66.206596
30
1.549800
11
-3.556100
21
63.576000
31
-0.168900
12
-3.846100
22
63.864101
32
1.786500
13
-3.846100
23
63.864101
33
1.786500
0
3DFACE
8
0
62
1
10
-3.346100
20
66.206596
30
1.549800
11
-3.086100
21
65.933701
31
-0.158600
12
-3.556100
22
63.576000
32
-0.168900
13
-3.556100
23
63.576000
33
-0.168900
0
3DFACE
8
0
62
1
10
2.623900
20
62.625198
30
-1.403100
11
1.323900
21
63.205799
31
-2.668400
12
2.523900
22
63.360901
32
-1.531000
13
2.523900
23
63.360901
33
-1.531000
0
3DFACE
8
0
62
1
10
2.523900
20
63.360901
30
-1.531000
11
1.323900
21
63.205799
31
-2.668400
12
2.223900
22
65.727303
32
-1.458100
13
2.223900
23
65.727303
33
-1.458100
0
3DFACE
8
0
62
1
10
1.323900
20
63.205799
30
-2.668400
11
1.163900
21
65.558296
31
-2.465800
12
2.223900
22
65.727303
32
-1.458100
13
2.223900
23
65.727303
33
-1.458100
0
3DFACE
8
0
62
1
10
2.223900
20
65.727303
30
-1.458100
11
1.163900
21
65.558296
31
-2.465800
12
0.953900
22
67.174301
32
-1.911700
13
0.953900
23
67.174301
33
-1.911700
0
3DFACE
8
0
62
1
10
1.163900
20
65.558296
30
-2.465800
11
-0.046100
21
65.512901
31
-2.769200
12
0.953900
22
67.174301
32
-1.911700
13
0.953900
23
67.174301
33
-1.911700
0
3DFACE
8
0
62
1
10
0.953900
20
67.174301
30
-1.911700
11
-0.046100
21
65.512901
31
-2.769200
12
-0.046100
22
67.135803
32
-2.142600
13
-0.046100
23
67.135803
33
-2.142600
0
3DFACE
8
0
62
1
10
-0.046100
20
65.512901
30
-2.769200
11
-1.096100
21
67.174301
31
-1.911700
12
-0.046100
22
67.135803
32
-2.142600
13
-0.046100
23
67.135803
33
-2.142600
0
3DFACE
8
0
62
1
10
2.223900
20
66.658600
30
4.430700
11
1.163900
21
66.763603
31
5.070600
12
1.793900
22
65.133102
32
5.307100
13
1.793900
23
65.133102
33
5.307100
0
3DFACE
8
0
62
1
10
1.793900
20
65.133102
30
5.307100
11
1.163900
21
66.763603
31
5.070600
12
1.243900
22
65.222900
32
5.700000
13
1.243900
23
65.222900
33
5.700000
0
3DFACE
8
0
62
1
10
1.163900
20
66.763603
30
5.070600
11
0.603900
21
65.258202
31
5.838800
12
1.243900
22
65.222900
32
5.700000
13
1.243900
23
65.222900
33
5.700000
0
3DFACE
8
0
62
1
10
1.243900
20
65.222900
30
5.700000
11
0.603900
21
65.258202
31
5.838800
12
1.323900
22
64.619904
32
6.483200
13
1.323900
23
64.619904
33
6.483200
0
3DFACE
8
0
62
1
10
0.603900
20
65.258202
30
5.838800
11
-0.046100
21
64.675903
31
6.839400
12
1.323900
22
64.619904
32
6.483200
13
1.323900
23
64.619904
33
6.483200
0
3DFACE
8
0
62
1
10
1.323900
20
64.619904
30
6.483200
11
-0.046100
21
64.675903
31
6.839400
12
-0.056100
22
66.206703
32
3.248400
13
-0.056100
23
66.206703
33
3.248400
0
3DFACE
8
0
62
1
10
-0.046100
20
64.675903
30
6.839400
11
-1.466100
21
64.619904
31
6.483200
12
-0.056100
22
66.206703
32
3.248400
13
-0.056100
23
66.206703
33
3.248400
0
3DFACE
8
0
62
1
10
3.183900
20
66.206596
30
1.549800
11
2.943900
21
66.458702
31
3.315500
12
3.263900
22
65.166100
32
2.607800
13
3.263900
23
65.166100
33
2.607800
0
3DFACE
8
0
62
1
10
3.183900
20
66.206596
30
1.549800
11
2.423900
21
67.776497
31
2.736200
12
2.943900
22
66.458702
32
3.315500
13
2.943900
23
66.458702
33
3.315500
0
3DFACE
8
0
62
1
10
3.183900
20
66.206596
30
1.549800
11
2.633900
21
67.681198
31
1.386100
12
2.423900
22
67.776497
32
2.736200
13
2.423900
23
67.776497
33
2.736200
0
3DFACE
8
0
62
1
10
3.183900
20
66.206596
30
1.549800
11
2.423900
21
67.439903
31
-0.163900
12
2.633900
22
67.681198
32
1.386100
13
2.633900
23
67.681198
33
1.386100
0
3DFACE
8
0
62
1
10
3.183900
20
66.206596
30
1.549800
11
2.943900
21
65.943497
31
-0.156800
12
2.423900
22
67.439903
32
-0.163900
13
2.423900
23
67.439903
33
-0.163900
0
3DFACE
8
0
62
1
10
-0.046100
20
66.828697
30
5.377600
11
-0.736100
21
65.258202
31
5.838800
12
-0.046100
22
65.266502
32
6.013300
13
-0.046100
23
65.266502
33
6.013300
0
3DFACE
8
0
62
1
10
-0.046100
20
66.828697
30
5.377600
11
-1.306100
21
66.763603
31
5.070600
12
-0.736100
22
65.258202
32
5.838800
13
-0.736100
23
65.258202
33
5.838800
0
3DFACE
8
0
62
1
10
-0.046100
20
66.828697
30
5.377600
11
-1.096100
21
67.858200
31
4.378600
12
-1.306100
22
66.763603
32
5.070600
13
-1.306100
23
66.763603
33
5.070600
0
3DFACE
8
0
62
1
10
-0.046100
20
66.828697
30
5.377600
11
-0.046100
21
67.894897
31
4.619400
12
-1.096100
22
67.858200
32
4.378600
13
-1.096100
23
67.858200
33
4.378600
0
3DFACE
8
0
62
1
10
-0.046100
20
66.828697
30
5.377600
11
0.953900
21
67.858200
31
4.378600
12
-0.046100
22
67.894897
32
4.619400
13
-0.046100
23
67.894897
33
4.619400
0
3DFACE
8
0
62
1
10
-0.086100
20
64.773804
30
-0.211100
11
3.883900
21
63.060902
31
3.264800
12
3.533900
22
63.865200
32
3.698800
13
3.533900
23
63.865200
33
3.698800
0
3DFACE
8
0
62
1
10
-0.086100
20
64.773804
30
-0.211100
11
-0.086100
21
64.376503
31
-0.427200
12
3.883900
22
63.060902
32
3.264800
13
3.883900
23
63.060902
33
3.264800
0
3DFACE
8
0
62
1
10
-0.086100
20
64.773804
30
-0.211100
11
-4.076100
21
62.501301
31
2.937200
12
-0.086100
22
64.376503
32
-0.427200
13
-0.086100
23
64.376503
33
-0.427200
0
3DFACE
8
0
62
1
10
-0.086100
20
64.773804
30
-0.211100
11
-0.066100
21
64.923798
31
-0.142600
12
-4.076100
22
62.501301
32
2.937200
13
-4.076100
23
62.501301
33
2.937200
0
3DFACE
8
0
62
1
10
-0.086100
20
64.773804
30
-0.211100
11
3.533900
21
63.865200
31
3.698800
12
-0.066100
22
64.923798
32
-0.142600
13
-0.066100
23
64.923798
33
-0.142600
0
3DFACE
8
0
62
1
10
0.953900
20
67.174301
30
-1.911700
11
0.883900
21
68.308197
31
-0.348600
12
1.833900
22
67.289902
32
-1.219000
13
1.833900
23
67.289902
33
-1.219000
0
3DFACE
8
0
62
1
10
1.833900
20
67.289902
30
-1.219000
11
0.883900
21
68.308197
31
-0.348600
12
2.423900
22
67.439903
32
-0.163900
13
2.423900
23
67.439903
33
-0.163900
0
3DFACE
8
0
62
1
10
0.883900
20
68.308197
30
-0.348600
11
1.183900
21
68.390297
31
0.195500
12
2.423900
22
67.439903
32
-0.163900
13
2.423900
23
67.439903
33
-0.163900
0
3DFACE
8
0
62
1
10
2.423900
20
67.439903
30
-0.163900
11
1.183900
21
68.390297
31
0.195500
12
1.293900
22
68.483704
32
0.843400
13
1.293900
23
68.483704
33
0.843400
0
3DFACE
8
0
62
1
10
0.883900
20
68.559402
30
2.901800
11
2.423900
21
67.776497
31
2.736200
12
1.183900
22
68.622704
32
1.957500
13
1.183900
23
68.622704
33
1.957500
0
3DFACE
8
0
62
1
10
1.183900
20
68.622704
30
1.957500
11
2.423900
21
67.776497
31
2.736200
12
1.293900
22
68.483704
32
0.843400
13
1.293900
23
68.483704
33
0.843400
0
3DFACE
8
0
62
1
10
2.423900
20
67.776497
30
2.736200
11
2.633900
21
67.681198
31
1.386100
12
1.293900
22
68.483704
32
0.843400
13
1.293900
23
68.483704
33
0.843400
0
3DFACE
8
0
62
1
10
1.293900
20
68.483704
30
0.843400
11
2.633900
21
67.681198
31
1.386100
12
2.423900
22
67.439903
32
-0.163900
13
2.423900
23
67.439903
33
-0.163900
0
3DFACE
8
0
62
1
10
2.423900
20
67.776497
30
2.736200
11
0.883900
21
68.559402
31
2.901800
12
1.833900
22
67.873299
32
3.913600
13
1.833900
23
67.873299
33
3.913600
0
3DFACE
8
0
62
1
10
1.833900
20
67.873299
30
3.913600
11
0.883900
21
68.559402
31
2.901800
12
0.953900
22
67.858200
32
4.378600
13
0.953900
23
67.858200
33
4.378600
0
3DFACE
8
0
62
1
10
0.883900
20
68.559402
30
2.901800
11
0.433900
21
68.486000
31
3.406900
12
0.953900
22
67.858200
32
4.378600
13
0.953900
23
67.858200
33
4.378600
0
3DFACE
8
0
62
1
10
0.953900
20
67.858200
30
4.378600
11
0.433900
21
68.486000
31
3.406900
12
-0.046100
22
68.462303
32
3.534700
13
-0.046100
23
68.462303
33
3.534700
0
3DFACE
8
0
62
1
10
-1.096100
20
67.858200
30
4.378600
11
-1.016100
21
68.551399
31
2.890100
12
-1.986100
22
67.863503
32
3.911800
13
-1.986100
23
67.863503
33
3.911800
0
3DFACE
8
0
62
1
10
-1.986100
20
67.863503
30
3.911800
11
-1.016100
21
68.551399
31
2.890100
12
-2.566100
22
67.778297
32
2.726300
13
-2.566100
23
67.778297
33
2.726300
0
3DFACE
8
0
62
1
10
-1.016100
20
68.551399
30
2.890100
11
-1.326100
21
68.624603
31
1.947600
12
-2.566100
22
67.778297
32
2.726300
13
-2.566100
23
67.778297
33
2.726300
0
3DFACE
8
0
62
1
10
-2.566100
20
67.778297
30
2.726300
11
-1.326100
21
68.624603
31
1.947600
12
-1.436100
22
68.483704
32
0.843400
13
-1.436100
23
68.483704
33
0.843400
0
3DFACE
8
0
62
1
10
-1.016100
20
68.308197
30
-0.348600
11
-2.566100
21
67.438103
31
-0.154100
12
-1.326100
22
68.390297
32
0.195500
13
-1.326100
23
68.390297
33
0.195500
0
3DFACE
8
0
62
1
10
-1.326100
20
68.390297
30
0.195500
11
-2.566100
21
67.438103
31
-0.154100
12
-1.436100
22
68.483704
32
0.843400
13
-1.436100
23
68.483704
33
0.843400
0
3DFACE
8
0
62
1
10
-2.566100
20
67.438103
30
-0.154100
11
-2.776100
21
67.681198
31
1.386100
12
-1.436100
22
68.483704
32
0.843400
13
-1.436100
23
68.483704
33
0.843400
0
3DFACE
8
0
62
1
10
-1.436100
20
68.483704
30
0.843400
11
-2.776100
21
67.681198
31
1.386100
12
-2.566100
22
67.778297
32
2.726300
13
-2.566100
23
67.778297
33
2.726300
0
3DFACE
8
0
62
1
10
-2.566100
20
67.438103
30
-0.154100
11
-1.016100
21
68.308197
31
-0.348600
12
-1.986100
22
67.289902
32
-1.219000
13
-1.986100
23
67.289902
33
-1.219000
0
3DFACE
8
0
62
1
10
-1.986100
20
67.289902
30
-1.219000
11
-1.016100
21
68.308197
31
-0.348600
12
-1.096100
22
67.174301
32
-1.911700
13
-1.096100
23
67.174301
33
-1.911700
0
3DFACE
8
0
62
1
10
-1.016100
20
68.308197
30
-0.348600
11
-0.566100
21
68.236198
31
-0.728100
12
-1.096100
22
67.174301
32
-1.911700
13
-1.096100
23
67.174301
33
-1.911700
0
3DFACE
8
0
62
1
10
-1.096100
20
67.174301
30
-1.911700
11
-0.566100
21
68.236198
31
-0.728100
12
-0.046100
22
68.218803
32
-0.853400
13
-0.046100
23
68.218803
33
-0.853400
0
3DFACE
8
0
62
1
10
-2.366100
20
65.727303
30
-1.458100
11
-2.566100
21
67.438103
31
-0.154100
12
-1.986100
22
67.289902
32
-1.219000
13
-1.986100
23
67.289902
33
-1.219000
0
3DFACE
8
0
62
1
10
-2.366100
20
65.727303
30
-1.458100
11
-3.086100
21
65.933701
31
-0.158600
12
-2.566100
22
67.438103
32
-0.154100
13
-2.566100
23
67.438103
33
-0.154100
0
3DFACE
8
0
62
1
10
-2.366100
20
65.727303
30
-1.458100
11
-3.556100
21
63.576000
31
-0.168900
12
-3.086100
22
65.933701
32
-0.158600
13
-3.086100
23
65.933701
33
-0.158600
0
3DFACE
8
0
62
1
10
-2.366100
20
65.727303
30
-1.458100
11
-2.676100
21
63.360901
31
-1.531000
12
-3.556100
22
63.576000
32
-0.168900
13
-3.556100
23
63.576000
33
-0.168900
0
3DFACE
8
0
62
1
10
1.793900
20
65.133102
30
5.307100
11
2.373900
21
65.061501
31
4.815800
12
2.223900
22
66.658600
32
4.430700
13
2.223900
23
66.658600
33
4.430700
0
3DFACE
8
0
62
1
10
1.793900
20
65.133102
30
5.307100
11
2.523900
21
64.462601
31
5.467400
12
2.373900
22
65.061501
32
4.815800
13
2.373900
23
65.061501
33
4.815800
0
3DFACE
8
0
62
1
10
1.793900
20
65.133102
30
5.307100
11
1.323900
21
64.619904
31
6.483200
12
2.523900
22
64.462601
32
5.467400
13
2.523900
23
64.462601
33
5.467400
0
3DFACE
8
0
62
1
10
1.793900
20
65.133102
30
5.307100
11
1.243900
21
65.222900
31
5.700000
12
1.323900
22
64.619904
32
6.483200
13
1.323900
23
64.619904
33
6.483200
0
3DFACE
8
0
62
1
10
0.953900
20
67.858200
30
4.378600
11
-0.046100
21
68.462303
31
3.534700
12
-0.046100
22
67.894897
32
4.619400
13
-0.046100
23
67.894897
33
4.619400
0
3DFACE
8
0
62
1
10
-0.046100
20
67.894897
30
4.619400
11
-0.046100
21
68.462303
31
3.534700
12
-1.096100
22
67.858200
32
4.378600
13
-1.096100
23
67.858200
33
4.378600
0
3DFACE
8
0
62
1
10
-0.046100
20
68.462303
30
3.534700
11
-0.566100
21
68.486000
31
3.406900
12
-1.096100
22
67.858200
32
4.378600
13
-1.096100
23
67.858200
33
4.378600
0
3DFACE
8
0
62
1
10
-1.096100
20
67.858200
30
4.378600
11
-0.566100
21
68.486000
31
3.406900
12
-1.016100
22
68.551399
32
2.890100
13
-1.016100
23
68.551399
33
2.890100
0
3DFACE
8
0
62
1
10
-1.096100
20
67.174301
30
-1.911700
11
-0.046100
21
68.218803
31
-0.853400
12
-0.046100
22
67.135803
32
-2.142600
13
-0.046100
23
67.135803
33
-2.142600
0
3DFACE
8
0
62
1
10
-0.046100
20
67.135803
30
-2.142600
11
-0.046100
21
68.218803
31
-0.853400
12
0.953900
22
67.174301
32
-1.911700
13
0.953900
23
67.174301
33
-1.911700
0
3DFACE
8
0
62
1
10
-0.046100
20
68.218803
30
-0.853400
11
0.433900
21
68.236198
31
-0.728100
12
0.953900
22
67.174301
32
-1.911700
13
0.953900
23
67.174301
33
-1.911700
0
3DFACE
8
0
62
1
10
0.953900
20
67.174301
30
-1.911700
11
0.433900
21
68.236198
31
-0.728100
12
0.883900
22
68.308197
32
-0.348600
13
0.883900
23
68.308197
33
-0.348600
0
3DFACE
8
0
62
1
10
-3.286100
20
64.862297
30
3.751600
11
-3.556100
21
64.145599
31
3.832200
12
-2.916100
22
64.971703
32
4.422800
13
-2.916100
23
64.971703
33
4.422800
0
3DFACE
8
0
62
1
10
-2.916100
20
64.971703
30
4.422800
11
-3.556100
21
64.145599
31
3.832200
12
-2.676100
22
64.462601
32
5.467400
13
-2.676100
23
64.462601
33
5.467400
0
3DFACE
8
0
62
1
10
-3.556100
20
64.145599
30
3.832200
11
0.013900
21
65.895302
31
1.309000
12
-2.676100
22
64.462601
32
5.467400
13
-2.676100
23
64.462601
33
5.467400
0
3DFACE
8
0
62
1
10
-2.676100
20
64.462601
30
5.467400
11
0.013900
21
65.895302
31
1.309000
12
-0.056100
22
66.053001
32
2.213000
13
-0.056100
23
66.053001
33
2.213000
0
3DFACE
8
0
62
1
10
-3.216100
20
61.692402
30
0.061300
11
-4.076100
21
62.501301
31
2.937200
12
-3.696100
22
62.599998
32
-0.116100
13
-3.696100
23
62.599998
33
-0.116100
0
3DFACE
8
0
62
1
10
-3.216100
20
61.692402
30
0.061300
11
-3.846100
21
62.071701
31
2.511600
12
-4.076100
22
62.501301
32
2.937200
13
-4.076100
23
62.501301
33
2.937200
0
3DFACE
8
0
62
1
10
-3.216100
20
61.692402
30
0.061300
11
-0.046100
21
63.490002
31
-2.117300
12
-3.846100
22
62.071701
32
2.511600
13
-3.846100
23
62.071701
33
2.511600
0
3DFACE
8
0
62
1
10
-3.216100
20
61.692402
30
0.061300
11
3.043900
21
61.692402
31
0.061300
12
-0.046100
22
63.490002
32
-2.117300
13
-0.046100
23
63.490002
33
-2.117300
0
3DFACE
8
0
62
1
10
-1.466100
20
64.619904
30
6.483200
11
-1.936100
21
65.154602
31
5.300900
12
-2.676100
22
64.462601
32
5.467400
13
-2.676100
23
64.462601
33
5.467400
0
3DFACE
8
0
62
1
10
-2.676100
20
64.462601
30
5.467400
11
-1.936100
21
65.154602
31
5.300900
12
-2.516100
22
65.083000
32
4.809600
13
-2.516100
23
65.083000
33
4.809600
0
3DFACE
8
0
62
1
10
-1.936100
20
65.154602
30
5.300900
11
-2.366100
21
66.680099
31
4.424500
12
-2.516100
22
65.083000
32
4.809600
13
-2.516100
23
65.083000
33
4.809600
0
3DFACE
8
0
62
1
10
-0.066100
20
64.103500
30
-0.599900
11
-0.026100
21
63.888699
31
-0.812700
12
3.913900
22
62.522800
32
2.931000
13
3.913900
23
62.522800
33
2.931000
0
3DFACE
8
0
62
1
10
3.913900
20
62.522800
30
2.931000
11
-0.026100
21
63.888699
31
-0.812700
12
3.673900
22
62.093201
32
2.505500
13
3.673900
23
62.093201
33
2.505500
0
3DFACE
8
0
62
1
10
-0.026100
20
63.888699
30
-0.812700
11
-0.076100
21
63.672100
31
-1.015600
12
3.673900
22
62.093201
32
2.505500
13
3.673900
23
62.093201
33
2.505500
0
3DFACE
8
0
62
1
10
-1.466100
20
64.619904
30
6.483200
11
0.003900
21
66.125298
31
2.755200
12
-0.056100
22
66.206703
32
3.248400
13
-0.056100
23
66.206703
33
3.248400
0
3DFACE
8
0
62
1
10
-0.056100
20
66.206703
30
3.248400
11
0.003900
21
66.125298
31
2.755200
12
1.323900
22
64.619904
32
6.483200
13
1.323900
23
64.619904
33
6.483200
0
3DFACE
8
0
62
1
10
0.003900
20
66.125298
30
2.755200
11
2.523900
21
64.462601
31
5.467400
12
1.323900
22
64.619904
32
6.483200
13
1.323900
23
64.619904
33
6.483200
0
3DFACE
8
0
62
1
10
3.403900
20
64.155403
30
3.834000
11
2.773900
21
64.971703
31
4.422800
12
2.523900
22
64.462601
32
5.467400
13
2.523900
23
64.462601
33
5.467400
0
3DFACE
8
0
62
1
10
2.523900
20
64.462601
30
5.467400
11
2.773900
21
64.971703
31
4.422800
12
2.373900
22
65.061501
32
4.815800
13
2.373900
23
65.061501
33
4.815800
0
3DFACE
8
0
62
1
10
2.773900
20
64.971703
30
4.422800
11
2.223900
21
66.658600
31
4.430700
12
2.373900
22
65.061501
32
4.815800
13
2.373900
23
65.061501
33
4.815800
0
3DFACE
8
0
62
1
10
-0.046100
20
63.155998
30
-3.003100
11
-0.046100
21
65.512901
31
-2.769200
12
1.323900
22
63.205799
32
-2.668400
13
1.323900
23
63.205799
33
-2.668400
0
3DFACE
8
0
62
1
10
1.323900
20
63.205799
30
-2.668400
11
-0.046100
21
65.512901
31
-2.769200
12
1.163900
22
65.558296
32
-2.465800
13
1.163900
23
65.558296
33
-2.465800
0
3DFACE
8
0
62
1
10
-1.986100
20
67.863503
30
3.911800
11
-2.566100
21
67.778297
31
2.726300
12
-2.366100
22
66.680099
32
4.424500
13
-2.366100
23
66.680099
33
4.424500
0
3DFACE
8
0
62
1
10
-2.366100
20
66.680099
30
4.424500
11
-2.566100
21
67.778297
31
2.726300
12
-3.086100
22
66.458702
32
3.315500
13
-3.086100
23
66.458702
33
3.315500
0
3DFACE
8
0
62
1
10
-2.676100
20
63.360901
30
-1.531000
11
-2.366100
21
65.727303
31
-1.458100
12
-1.466100
22
63.205799
32
-2.668400
13
-1.466100
23
63.205799
33
-2.668400
0
3DFACE
8
0
62
1
10
-1.466100
20
63.205799
30
-2.668400
11
-2.366100
21
65.727303
31
-1.458100
12
-1.306100
22
65.558296
32
-2.465800
13
-1.306100
23
65.558296
33
-2.465800
0
3DFACE
8
0
62
1
10
3.403900
20
64.155403
30
3.834000
11
-0.046100
21
65.612000
31
0.259700
12
-0.046100
22
65.226402
32
0.035600
13
-0.046100
23
65.226402
33
0.035600
0
3DFACE
8
0
62
1
10
-0.046100
20
65.226402
30
0.035600
11
-0.046100
21
65.612000
31
0.259700
12
-3.696100
22
63.853600
32
3.706800
13
-3.696100
23
63.853600
33
3.706800
0
3DFACE
8
0
62
1
10
-2.756100
20
62.646702
30
-1.409300
11
-1.506100
21
62.667801
31
-2.564800
12
-1.336100
22
62.133400
32
-1.931700
13
-1.336100
23
62.133400
33
-1.931700
0
3DFACE
8
0
62
1
10
2.223900
20
65.727303
30
-1.458100
11
0.953900
21
67.174301
31
-1.911700
12
1.833900
22
67.289902
32
-1.219000
13
1.833900
23
67.289902
33
-1.219000
0
3DFACE
8
0
62
1
10
3.043900
20
61.692402
30
0.061300
11
2.623900
21
62.625198
31
-1.403100
12
3.513900
22
62.601799
32
-0.125900
13
3.513900
23
62.601799
33
-0.125900
0
3DFACE
8
0
62
1
10
3.403900
20
63.576000
30
-0.168900
11
3.703900
21
63.881901
31
1.800000
12
3.913900
22
62.522800
32
2.931000
13
3.913900
23
62.522800
33
2.931000
0
3DFACE
8
0
62
1
10
3.263900
20
65.166100
30
2.607800
11
2.943900
21
66.458702
31
3.315500
12
3.143900
22
64.862297
32
3.751600
13
3.143900
23
64.862297
33
3.751600
0
3DFACE
8
0
62
1
10
2.523900
20
63.360901
30
-1.531000
11
2.223900
21
65.727303
31
-1.458100
12
3.403900
22
63.576000
32
-0.168900
13
3.403900
23
63.576000
33
-0.168900
0
3DFACE
8
0
62
1
10
-2.756100
20
62.646702
30
-1.409300
11
-3.556100
21
63.576000
31
-0.168900
12
-2.676100
22
63.360901
32
-1.531000
13
-2.676100
23
63.360901
33
-1.531000
0
3DFACE
8
0
62
1
10
-1.306100
20
66.763603
30
5.070600
11
-1.386100
21
65.222900
31
5.700000
12
-0.736100
22
65.258202
32
5.838800
13
-0.736100
23
65.258202
33
5.838800
0
3DFACE
8
0
62
1
10
0.013900
20
65.895302
30
1.309000
11
-3.556100
21
64.145599
31
3.832200
12
-0.066100
22
65.755798
32
0.306700
13
-0.066100
23
65.755798
33
0.306700
0
3DFACE
8
0
62
1
10
-2.516100
20
65.083000
30
4.809600
11
-2.916100
21
64.971703
31
4.422800
12
-2.676100
22
64.462601
32
5.467400
13
-2.676100
23
64.462601
33
5.467400
0
3DFACE
8
0
62
1
10
-1.336100
20
62.133400
30
-1.931700
11
2.293900
21
61.768501
31
-0.951800
12
-2.426100
22
61.768501
32
-0.951800
13
-2.426100
23
61.768501
33
-0.951800
0
3DFACE
8
0
62
1
10
-4.056100
20
63.049301
30
3.272800
11
-4.076100
21
62.501301
31
2.937200
12
-0.066100
22
64.923798
32
-0.142600
13
-0.066100
23
64.923798
33
-0.142600
0
ENDSEC
0
EOF
